<svg width="1024" height="1024" viewBox="0 0 1024 1024" fill="none" xmlns="http://www.w3.org/2000/svg">
<path fill-rule="evenodd" clip-rule="evenodd" d="M662.819 1011.8V511.247C662.26 508.251 660.86 505.497 658.799 503.337C657.463 501.92 655.872 500.793 654.118 500.02C652.364 499.248 650.482 498.846 648.579 498.838H375.5C371.661 498.88 367.992 500.494 365.277 503.334C362.563 506.174 361.02 510.014 360.98 514.03V1008.87C360.98 1012.87 362.52 1016.72 365.28 1019.5C366.552 1020.92 368.089 1022.05 369.795 1022.82C371.501 1023.6 373.34 1024 375.2 1024H648.839C652.679 1023.98 656.379 1022.35 659.059 1019.5C661.072 1017.28 662.444 1014.51 663.019 1011.51L662.819 1011.8ZM840.719 595.642C836.119 595.642 832.359 591.729 832.359 586.895C832.359 582.082 836.119 578.169 840.719 578.169H906.759C907.871 578.143 908.976 578.35 910.011 578.778C911.045 579.205 911.988 579.845 912.783 580.659C913.578 581.472 914.209 582.444 914.64 583.517C915.072 584.59 915.294 585.741 915.294 586.905C915.294 588.069 915.072 589.221 914.64 590.293C914.209 591.366 913.578 592.338 912.783 593.152C911.988 593.965 911.045 594.605 910.011 595.032C908.976 595.46 907.871 595.667 906.759 595.642H840.719ZM840.719 547.03C836.119 547.03 832.359 543.117 832.359 538.283C832.359 533.47 836.119 529.557 840.719 529.557H952.879C955.062 529.607 957.139 530.55 958.666 532.183C960.193 533.815 961.048 536.009 961.048 538.294C961.048 540.578 960.193 542.772 958.666 544.405C957.139 546.038 955.062 546.98 952.879 547.03H840.719ZM840.719 498.419C836.119 498.419 832.359 494.506 832.359 489.693C832.359 484.859 836.119 480.946 840.719 480.946H971.899C974.082 480.996 976.159 481.938 977.686 483.571C979.213 485.204 980.068 487.398 980.068 489.682C980.068 491.967 979.213 494.161 977.686 495.794C976.159 497.427 974.082 498.369 971.899 498.419H840.719ZM927.539 351.664C929.859 351.664 931.959 352.668 933.479 354.259L1021.08 433.464C1022.34 434.594 1023.2 436.059 1023.64 437.608C1024.04 439.072 1024 440.454 1024 441.96V638.499C1024 643.144 1022.12 647.434 1019.2 650.51C1016.22 653.628 1012.12 655.574 1007.68 655.574H804.959C800.499 655.574 796.379 653.649 793.419 650.552C790.362 647.356 788.642 643.021 788.639 638.499V368.74C788.639 364.052 790.479 359.762 793.439 356.707C794.943 355.108 796.736 353.839 798.714 352.973C800.692 352.107 802.815 351.662 804.959 351.664H927.539V351.664ZM1007.22 449.075L927.759 451.356C923.159 451.482 919.299 447.673 919.179 442.86L919.139 369.221H805.399V638.038H1007.22V449.075ZM993.859 431.958L935.919 379.6V433.632L993.859 431.958V431.958ZM52.0999 595.642C50.988 595.667 49.8825 595.46 48.8481 595.032C47.8137 594.605 46.8714 593.965 46.0764 593.152C45.2814 592.338 44.6498 591.366 44.2185 590.293C43.7873 589.221 43.5652 588.069 43.5652 586.905C43.5652 585.741 43.7873 584.59 44.2185 583.517C44.6498 582.444 45.2814 581.472 46.0764 580.659C46.8714 579.845 47.8137 579.205 48.8481 578.778C49.8825 578.35 50.988 578.143 52.0999 578.169H118.14C120.323 578.219 122.4 579.161 123.927 580.794C125.454 582.427 126.309 584.621 126.309 586.905C126.309 589.19 125.454 591.383 123.927 593.016C122.4 594.649 120.323 595.592 118.14 595.642H52.0999ZM52.0999 547.03C50.988 547.056 49.8825 546.849 48.8481 546.421C47.8137 545.993 46.8714 545.354 46.0764 544.54C45.2814 543.726 44.6498 542.755 44.2185 541.682C43.7873 540.609 43.5652 539.457 43.5652 538.294C43.5652 537.13 43.7873 535.978 44.2185 534.905C44.6498 533.833 45.2814 532.861 46.0764 532.047C46.8714 531.233 47.8137 530.594 48.8481 530.166C49.8825 529.739 50.988 529.532 52.0999 529.557H164.24C168.84 529.557 172.6 533.47 172.6 538.283C172.6 543.117 168.84 547.03 164.24 547.03H52.0999ZM52.0999 498.419C50.988 498.444 49.8825 498.237 48.8481 497.81C47.8137 497.382 46.8714 496.743 46.0764 495.929C45.2814 495.115 44.6498 494.143 44.2185 493.071C43.7873 491.998 43.5652 490.846 43.5652 489.682C43.5652 488.519 43.7873 487.367 44.2185 486.294C44.6498 485.221 45.2814 484.25 46.0764 483.436C46.8714 482.622 47.8137 481.983 48.8481 481.555C49.8825 481.127 50.988 480.92 52.0999 480.946H183.26C187.86 480.946 191.62 484.859 191.62 489.693C191.62 494.506 187.86 498.419 183.26 498.419H52.0999ZM144.84 354.259L232.46 433.464C233.9 434.762 234.8 436.478 235.16 438.277C235.42 439.721 235.34 440.956 235.36 442.462V638.499C235.36 647.79 227.96 655.574 219.06 655.574H16.32C7.35999 655.574 0 647.873 0 638.499V368.74C0 364.052 1.86 359.762 4.82 356.707C6.32128 355.11 8.11124 353.842 10.0856 352.976C12.0599 352.11 14.1792 351.664 16.32 351.664H136C136.96 351.664 137.94 351.706 138.9 351.664C141.22 351.664 143.32 352.668 144.84 354.259V354.259ZM218.6 449.075L139.14 451.356C136.926 451.419 134.778 450.56 133.169 448.966C131.56 447.373 130.622 445.177 130.56 442.86L130.52 369.221H16.78V638.038H218.6V449.075V449.075ZM205.22 431.958L147.28 379.6V433.632L205.22 431.958V431.958ZM500.899 466.172C499.899 465.502 498.959 464.665 498.119 463.703L466.04 427.354C460.52 421.055 460.9 411.22 466.92 405.423C472.94 399.648 482.339 400.045 487.859 406.344L497.139 416.849V351.434C497.139 342.854 503.799 335.886 511.999 335.886C520.199 335.886 526.859 342.854 526.859 351.434V419.862L537.579 410.508C540.599 407.886 544.489 406.624 548.397 407.001C552.304 407.377 555.909 409.362 558.419 412.517C559.66 414.079 560.595 415.882 561.17 417.822C561.746 419.763 561.95 421.802 561.772 423.825C561.593 425.848 561.036 427.814 560.131 429.612C559.227 431.409 557.993 433.003 556.499 434.301L519.919 466.235C514.319 471.11 506.259 470.943 500.899 466.172V466.172ZM446.4 243.978C441.8 243.978 438.06 240.044 438.06 235.231C438.06 230.418 441.8 226.484 446.4 226.484H512.439C517.059 226.484 520.799 230.418 520.799 235.231C520.799 240.044 517.059 243.978 512.439 243.978H446.4ZM446.4 195.367C444.185 195.367 442.061 194.446 440.495 192.808C438.929 191.169 438.05 188.947 438.05 186.63C438.05 184.313 438.929 182.091 440.495 180.452C442.061 178.814 444.185 177.893 446.4 177.893H558.539C563.159 177.893 566.899 181.806 566.899 186.619C566.899 191.432 563.159 195.367 558.539 195.367H446.4V195.367ZM446.4 146.755C444.217 146.705 442.139 145.763 440.612 144.13C439.085 142.497 438.23 140.303 438.23 138.018C438.23 135.734 439.085 133.54 440.612 131.907C442.139 130.274 444.217 129.332 446.4 129.282H577.579C579.762 129.332 581.84 130.274 583.367 131.907C584.894 133.54 585.749 135.734 585.749 138.018C585.749 140.303 584.894 142.497 583.367 144.13C581.84 145.763 579.762 146.705 577.579 146.755H446.4ZM539.159 2.57393L626.759 81.8003C628.139 83.0257 629.089 84.6971 629.459 86.5506C629.679 87.5969 629.679 88.6432 629.679 89.7104V286.835C629.679 291.48 627.799 295.749 624.879 298.846C621.899 301.943 617.799 303.91 613.359 303.91H410.62C406.18 303.91 402.06 301.964 399.1 298.888C396.042 295.692 394.323 291.357 394.32 286.835V17.0548C394.32 12.3674 396.16 8.07751 399.12 5.02229C400.622 3.42856 402.413 2.16369 404.387 1.30143C406.361 0.439169 408.48 -0.00323153 410.62 1.77696e-05H531.979L532.599 0.0209439L533.219 1.77696e-05C535.539 1.77696e-05 537.639 0.983547 539.159 2.57393V2.57393ZM612.899 97.4112L533.439 99.6922C528.839 99.8177 524.979 96.0092 524.859 91.1752L524.819 17.5361H411.08V286.353H612.899V97.4112V97.4112ZM599.539 80.2936L541.599 27.9155V81.9677L599.539 80.2936V80.2936ZM294.52 827.504C293.82 828.55 293 829.512 292.04 830.391L257.3 861.927C251.12 867.514 241.74 866.803 236.4 860.337C231.06 853.87 231.74 844.077 237.92 838.49L247.62 829.68C236.12 829.387 224.56 827.817 213.22 824.867C199 821.205 185 815.366 171.62 807.289C154.32 796.847 139.62 783.6 127.8 768.513C115.588 752.857 106.184 735.02 100.04 715.863C97.4399 707.764 101.62 698.975 109.38 696.255C117.12 693.555 125.52 697.929 128.12 706.048C133.149 721.617 140.826 736.108 150.78 748.821C160.713 761.533 172.768 772.253 186.36 780.462C197.2 787.011 208.64 791.762 220.3 794.775C229.5 797.161 238.86 798.437 248.14 798.688L241.8 791.155C236.38 784.731 236.98 774.916 243.12 769.245C249.28 763.595 258.66 764.223 264.06 770.647L294.58 806.912C299.6 812.876 299.46 821.749 294.52 827.504V827.504ZM731.959 830.391C730.999 829.512 730.179 828.55 729.479 827.504C724.559 821.749 724.399 812.876 729.419 806.912L759.939 770.626C761.226 769.098 762.787 767.849 764.535 766.952C766.283 766.056 768.183 765.528 770.126 765.4C772.068 765.271 774.016 765.545 775.858 766.205C777.7 766.865 779.399 767.898 780.859 769.245C782.323 770.589 783.52 772.221 784.38 774.049C785.24 775.877 785.747 777.865 785.871 779.899C785.996 781.932 785.736 783.971 785.105 785.899C784.475 787.827 783.488 789.606 782.199 791.134L775.859 798.688C785.139 798.437 794.499 797.161 803.699 794.775C815.606 791.698 827.038 786.879 837.659 780.462C851.365 772.198 863.511 761.383 873.499 748.549C883.492 735.68 891.152 721.006 896.099 705.253C897.332 701.342 899.998 698.103 903.512 696.247C907.025 694.391 911.099 694.07 914.839 695.355C922.639 698.033 926.859 706.822 924.299 714.963C918.189 734.299 908.754 752.305 896.459 768.094C884.559 783.412 869.759 796.805 852.379 807.289C839.019 815.366 824.999 821.205 810.799 824.867C799.528 827.783 787.986 829.397 776.379 829.68L786.079 838.49C792.259 844.077 792.939 853.87 787.599 860.337C782.259 866.803 772.879 867.514 766.719 861.927L731.959 830.391V830.391ZM511.999 866.635C535.359 866.635 554.299 886.453 554.299 910.894C554.299 935.336 535.359 955.153 511.999 955.153C488.639 955.153 469.7 935.336 469.7 910.894C469.7 886.453 488.639 866.635 511.999 866.635V866.635ZM609.299 585.576V623.578H414.82V585.576H609.299ZM609.299 690.709V728.711H513.459L512.519 725.363L511.279 728.502H414.82V690.709H609.299V690.709Z" fill="#63C1FE"/>
</svg>
