<?xml version="1.0" standalone="no"?>
<!DOCTYPE svg PUBLIC "-//W3C//DTD SVG 20010904//EN"
 "http://www.w3.org/TR/2001/REC-SVG-20010904/DTD/svg10.dtd">
<svg version="1.0" xmlns="http://www.w3.org/2000/svg"
 width="700.000000pt" height="700.000000pt" viewBox="0 0 700.000000 700.000000"
 preserveAspectRatio="xMidYMid meet">
<metadata>
Created by potrace 1.14, written by Peter Selinger 2001-2017
</metadata>
<g transform="translate(0.000000,700.000000) scale(0.100000,-0.100000)"
fill="#000000" stroke="none">
<path d="M2761 6987 c-13 -6 -33 -25 -45 -40 -21 -28 -21 -31 -21 -974 0 -609
3 -956 10 -976 5 -17 23 -40 38 -51 28 -21 34 -21 753 -22 664 0 727 1 752 17
59 35 57 13 57 778 l0 703 -45 41 c-25 23 -83 76 -129 117 -46 41 -96 86 -111
100 -15 14 -64 59 -110 100 -46 41 -105 94 -131 118 -26 24 -63 56 -81 72
l-33 30 -440 0 c-330 0 -446 -3 -464 -13z m828 -368 c0 -234 2 -264 18 -281
17 -18 29 -19 263 -13 135 4 261 7 280 8 l35 2 3 -646 2 -646 -687 1 -688 1
-3 918 -2 917 389 0 389 0 1 -261z m217 96 c6 -5 48 -44 94 -85 46 -41 109
-98 139 -127 l56 -52 -65 -2 c-36 0 -123 -2 -195 -2 l-130 -2 -2 165 c-1 91 0
171 3 179 4 12 34 -10 100 -74z"/>
<path d="M3017 6100 c-26 -22 -25 -69 2 -89 18 -14 75 -16 485 -15 427 0 465
2 481 18 22 22 23 63 1 84 -15 15 -62 17 -483 17 -413 1 -468 -1 -486 -15z"/>
<path d="M3030 5778 c-31 -11 -44 -55 -25 -84 8 -13 23 -25 33 -25 9 -1 193
-2 407 -3 431 -2 425 -3 425 59 0 60 5 59 -426 60 -217 0 -403 -3 -414 -7z"/>
<path d="M3098 5450 c-42 -3 -82 -10 -89 -17 -17 -17 -14 -61 6 -83 16 -17 34
-19 261 -20 232 -1 244 0 264 20 25 25 26 62 2 84 -16 14 -47 17 -193 19 -96
1 -209 0 -251 -3z"/>
<path d="M3464 4695 c-62 -26 -65 -41 -66 -301 0 -129 -2 -234 -4 -234 -2 0
-23 21 -47 47 -40 42 -49 47 -88 46 -36 -1 -48 -7 -72 -33 -25 -29 -29 -39
-24 -77 4 -36 16 -56 68 -116 35 -39 75 -85 89 -102 14 -16 48 -53 77 -82 55
-56 92 -67 139 -40 48 28 284 242 295 268 26 64 -17 138 -85 144 -30 3 -45 -4
-86 -36 -27 -21 -51 -39 -53 -39 -2 0 -4 104 -5 230 0 127 -3 244 -7 259 -12
56 -78 89 -131 66z"/>
<path d="M73 4589 c-10 -4 -29 -19 -43 -34 l-25 -27 -3 -946 c-2 -653 0 -958
8 -984 6 -22 23 -46 41 -58 30 -22 30 -22 753 -22 804 0 757 -4 790 67 14 29
16 114 16 723 0 380 -3 697 -6 706 -3 9 -67 71 -142 138 -76 67 -159 143 -187
169 -82 76 -269 243 -289 259 -16 13 -84 15 -457 15 -241 1 -446 -2 -456 -6z
m818 -164 c0 -27 0 -135 0 -240 -1 -104 2 -204 5 -221 8 -41 32 -51 119 -48
389 12 475 13 476 6 1 -4 2 -294 3 -645 l1 -637 -85 0 c-220 -1 -1248 -1
-1270 -1 l-25 1 1 918 c1 504 2 917 3 917 0 0 174 0 386 0 l385 0 1 -50z m208
-102 c77 -69 140 -127 206 -188 12 -11 38 -35 58 -52 21 -18 32 -34 25 -34
-13 -1 -96 -4 -270 -10 -54 -2 -101 0 -104 4 -8 7 -12 357 -5 357 2 0 42 -35
90 -77z"/>
<path d="M316 3694 c-9 -8 -16 -29 -16 -44 0 -59 -1 -58 509 -58 440 0 464 1
482 19 24 24 24 61 1 82 -17 15 -65 17 -490 17 -414 0 -472 -2 -486 -16z"/>
<path d="M317 3362 c-22 -24 -21 -65 1 -85 17 -15 61 -17 420 -17 389 0 403 1
422 20 25 25 25 55 0 80 -19 19 -33 20 -423 20 -379 0 -405 -1 -420 -18z"/>
<path d="M321 3034 c-26 -19 -28 -65 -3 -87 16 -15 50 -17 265 -17 270 0 277
2 277 60 0 54 -19 58 -282 58 -191 0 -240 -3 -257 -14z"/>
<path d="M5460 4583 c-16 -6 -39 -27 -50 -45 -20 -32 -20 -48 -20 -976 0
-1036 -2 -995 61 -1027 29 -15 100 -17 744 -17 645 0 715 2 744 17 62 32 61
14 61 781 l0 697 -52 51 c-29 28 -93 88 -143 132 -49 45 -162 146 -250 225
-88 79 -169 151 -179 159 -16 13 -83 15 -453 15 -322 1 -442 -2 -463 -12z
m821 -113 c0 -3 1 -121 2 -263 2 -310 -4 -295 123 -291 44 1 169 5 279 8 l200
6 0 -639 c0 -352 -3 -642 -6 -646 -5 -4 -936 -9 -1309 -6 l-65 1 0 913 c0 741
2 913 13 917 17 7 762 7 763 0z m194 -135 c7 -5 52 -46 101 -91 49 -45 117
-105 150 -135 34 -30 60 -56 58 -58 -2 -2 -41 -5 -86 -6 -46 -2 -129 -4 -185
-6 -56 -2 -105 0 -109 3 -5 6 -8 232 -5 337 l1 25 32 -30 c18 -16 37 -33 43
-39z"/>
<path d="M5707 3692 c-21 -23 -22 -52 -3 -78 14 -18 32 -19 484 -20 453 -2
471 -1 491 17 25 23 27 47 5 77 l-15 22 -473 0 c-445 0 -474 -1 -489 -18z"/>
<path d="M5706 3358 c-21 -30 -20 -54 4 -78 19 -19 33 -20 420 -20 387 0 401
1 420 20 24 24 25 48 4 78 l-15 22 -409 0 -409 0 -15 -22z"/>
<path d="M5709 3029 c-24 -24 -24 -61 -1 -82 16 -15 50 -17 270 -17 l252 0 15
24 c17 25 9 62 -17 83 -10 8 -87 12 -257 11 -224 -1 -245 -2 -262 -19z"/>
<path d="M2513 3571 c-19 -12 -34 -31 -38 -50 -3 -16 -7 -799 -7 -1739 0
-1567 1 -1711 16 -1734 9 -14 28 -30 42 -36 18 -9 278 -12 975 -12 1021 0 991
-1 1019 49 7 13 10 581 10 1748 0 1622 -2 1729 -18 1749 -9 12 -27 27 -39 33
-15 8 -292 11 -975 11 -923 0 -954 -1 -985 -19z m1642 -579 c12 -2 14 -236 3
-248 -6 -5 -1251 -10 -1313 -5 -8 1 -13 222 -6 252 1 4 1286 5 1316 1z m10
-844 l0 -128 -665 0 -665 0 1 123 c1 67 2 125 3 129 0 3 299 6 663 5 l663 -2
0 -127z m-590 -1084 c53 -11 123 -61 162 -119 12 -17 29 -57 38 -89 55 -187
-74 -372 -265 -382 -60 -3 -76 0 -128 27 -113 56 -166 143 -166 274 0 97 23
153 92 220 71 70 151 91 267 69z"/>
<path d="M744 2240 c-33 -13 -64 -59 -64 -96 0 -37 38 -140 83 -224 120 -226
307 -400 535 -501 117 -51 264 -88 361 -89 l35 0 -47 -45 c-26 -24 -47 -48
-48 -52 0 -5 -3 -20 -5 -35 -10 -58 49 -119 108 -112 38 4 44 8 156 111 54 51
111 102 126 114 35 28 53 66 51 109 -3 45 -2 43 -23 66 -10 10 -61 71 -113
134 -114 136 -119 142 -161 145 -107 9 -144 -116 -61 -203 7 -7 13 -15 13 -17
0 -11 -135 9 -210 32 -273 82 -472 268 -586 548 -41 101 -89 138 -150 115z"/>
<path d="M6175 2238 c-29 -17 -41 -36 -65 -103 -115 -318 -426 -565 -742 -589
-46 -4 -56 -2 -51 10 3 8 9 14 13 14 12 0 40 65 40 95 0 34 -27 80 -54 93 -26
12 -84 6 -104 -11 -26 -21 -233 -271 -244 -294 -19 -40 0 -94 51 -143 75 -70
212 -194 230 -206 31 -22 70 -25 102 -9 34 18 61 72 55 107 -3 13 -5 27 -5 31
-1 4 -22 28 -48 52 l-47 45 34 1 c136 3 304 51 440 126 237 129 407 323 510
578 43 107 43 144 1 186 -32 31 -79 38 -116 17z"/>
</g>
</svg>
